<svg xmlns="http://www.w3.org/2000/svg" width="139.88" height="32.325" viewBox="0 0 139.88 32.325">
  <g id="Group_17" data-name="Group 17" transform="translate(-164.922 -22.508)">
    <path id="Path_106" data-name="Path 106" d="M202.756,42.235a.834.834,0,0,1-.362-.314.9.9,0,0,1-.129-.488,1.063,1.063,0,0,1,.081-.42h.382a1.7,1.7,0,0,0-.044.187,1.081,1.081,0,0,0-.015.187.651.651,0,0,0,.077.325.521.521,0,0,0,.217.214.671.671,0,0,0,.332.078.648.648,0,0,0,.335-.083.551.551,0,0,0,.216-.23.741.741,0,0,0,.074-.338v-1.2a.8.8,0,0,0-.066-.326.539.539,0,0,0-.517-.326.6.6,0,0,0-.308.075.516.516,0,0,0-.267.453.927.927,0,0,0,.026.225H202.4c-.007-.028-.015-.065-.023-.111a.93.93,0,0,1-.01-.144.759.759,0,0,1,.121-.413.887.887,0,0,1,.343-.308,1.08,1.08,0,0,1,.514-.118,1.024,1.024,0,0,1,.526.131.862.862,0,0,1,.339.349,1,1,0,0,1,.118.486v1.226a1.02,1.02,0,0,1-.13.525.872.872,0,0,1-.364.345,1.155,1.155,0,0,1-.535.121,1.247,1.247,0,0,1-.539-.109" fill="#fff"/>
    <path id="Path_107" data-name="Path 107" d="M209.034,42.233a.868.868,0,0,1-.371-.31.821.821,0,0,1-.132-.459.976.976,0,0,1,.078-.409h.382a.962.962,0,0,0-.055.344.618.618,0,0,0,.084.332.538.538,0,0,0,.233.205.8.8,0,0,0,.338.067.754.754,0,0,0,.324-.069.567.567,0,0,0,.327-.53.64.64,0,0,0-.075-.312.53.53,0,0,0-.207-.215.6.6,0,0,0-.305-.077h-.227v-.331h.214a.554.554,0,0,0,.279-.065.408.408,0,0,0,.167-.17.506.506,0,0,0,.056-.238.481.481,0,0,0-.068-.245.507.507,0,0,0-.194-.181.594.594,0,0,0-.287-.068.645.645,0,0,0-.3.068.5.5,0,0,0-.194.181.463.463,0,0,0-.069.245.677.677,0,0,0,.021.183h-.387a.387.387,0,0,1-.025-.1.933.933,0,0,1-.008-.125.688.688,0,0,1,.124-.4.865.865,0,0,1,.35-.285,1.158,1.158,0,0,1,.5-.1,1.058,1.058,0,0,1,.485.109.837.837,0,0,1,.338.289.678.678,0,0,1,.121.39.727.727,0,0,1-.121.424.635.635,0,0,1-.317.251v.017a.825.825,0,0,1,.263.149.778.778,0,0,1,.2.267.883.883,0,0,1,.077.38.814.814,0,0,1-.136.451.968.968,0,0,1-.379.332,1.181,1.181,0,0,1-.54.123,1.3,1.3,0,0,1-.557-.111" fill="#fff"/>
    <path id="Path_108" data-name="Path 108" d="M217.2,41.783a1.928,1.928,0,0,0,.074-.544,1.109,1.109,0,0,0-.059-.392.481.481,0,0,0-.162-.232.391.391,0,0,0-.233-.075.353.353,0,0,0-.2.059.406.406,0,0,0-.136.168.627.627,0,0,0-.048.253v.691h-.4V41.02a.556.556,0,0,0-.1-.352.328.328,0,0,0-.268-.128.413.413,0,0,0-.23.069.476.476,0,0,0-.173.223,1.034,1.034,0,0,0-.065.4,1.976,1.976,0,0,0,.076.545,1.944,1.944,0,0,0,.221.494h-.413a2.516,2.516,0,0,1-.166-.345,1.845,1.845,0,0,1-.093-.387,3.82,3.82,0,0,1-.03-.515,2,2,0,0,1,.145-.818,1.174,1.174,0,0,1,.406-.5,1.715,1.715,0,0,1,.641-.248l.434-.085a.651.651,0,0,0,.165-.054.178.178,0,0,0,.09-.087h.4a.491.491,0,0,1-.094.233.543.543,0,0,1-.21.15,1.633,1.633,0,0,1-.36.1l-.383.068a1.467,1.467,0,0,0-.6.245.816.816,0,0,0-.308.512h.009a.491.491,0,0,1,.138-.187.65.65,0,0,1,.2-.115.666.666,0,0,1,.217-.038.513.513,0,0,1,.324.1.667.667,0,0,1,.211.305h.012a.635.635,0,0,1,.243-.3.667.667,0,0,1,.366-.108.729.729,0,0,1,.423.13.86.86,0,0,1,.3.361,1.242,1.242,0,0,1,.108.53,2.168,2.168,0,0,1-.069.566,1.749,1.749,0,0,1-.22.485h-.417a1.808,1.808,0,0,0,.228-.489" fill="#fff"/>
    <path id="Path_109" data-name="Path 109" d="M224.446,41.623a3.391,3.391,0,0,0,.1-.806v-.523a1.07,1.07,0,0,0-.134-.594.413.413,0,0,0-.359-.2.4.4,0,0,0-.218.064.44.44,0,0,0-.155.185.7.7,0,0,0-.058.292V41.4h-.4V40.043a.679.679,0,0,0-.058-.294.422.422,0,0,0-.152-.185.4.4,0,0,0-.216-.062.4.4,0,0,0-.259.089.589.589,0,0,0-.174.266,1.292,1.292,0,0,0-.064.437v.523a3.193,3.193,0,0,0,.045.529,3.524,3.524,0,0,0,.123.524,1.749,1.749,0,0,0,.177.4h-.413a2.063,2.063,0,0,1-.243-.634,3.552,3.552,0,0,1-.094-.821v-.558a1.425,1.425,0,0,1,.111-.584.871.871,0,0,1,.307-.381.778.778,0,0,1,.446-.132.751.751,0,0,1,.41.111.569.569,0,0,1,.245.328h.013a.573.573,0,0,1,.151-.243.668.668,0,0,1,.24-.147.84.84,0,0,1,.73.08.832.832,0,0,1,.3.379,1.475,1.475,0,0,1,.107.589v.558a3.639,3.639,0,0,1-.091.819,1.952,1.952,0,0,1-.249.636h-.417a2.124,2.124,0,0,0,.255-.649" fill="#fff"/>
    <path id="Path_110" data-name="Path 110" d="M229.664,42.263a.956.956,0,0,1-.4-.24.522.522,0,0,1-.154-.376.628.628,0,0,1,.043-.222h.37a.631.631,0,0,0-.022.145.338.338,0,0,0,.1.247.583.583,0,0,0,.254.142,1.207,1.207,0,0,0,.338.045,1.082,1.082,0,0,0,.332-.049.552.552,0,0,0,.234-.138.293.293,0,0,0,.085-.209.367.367,0,0,0-.126-.3.58.58,0,0,0-.376-.1h-.413v-.311h.459a.588.588,0,0,0,.283-.053.184.184,0,0,0,.1-.177.2.2,0,0,0-.1-.184.537.537,0,0,0-.277-.061h-.459v-.312h.477a.47.47,0,0,0,.237-.046.156.156,0,0,0,.074-.137.162.162,0,0,0-.1-.145,1.308,1.308,0,0,0-.292-.1,1.6,1.6,0,0,1-.276-.083.489.489,0,0,1-.183-.131.418.418,0,0,1-.094-.232h.349a.24.24,0,0,0,.13.106,2.713,2.713,0,0,0,.317.1,2.531,2.531,0,0,1,.291.1.49.49,0,0,1,.178.135.354.354,0,0,1,.074.237c0,.177-.114.29-.343.341v.017a.609.609,0,0,1,.193.068.438.438,0,0,1,.149.134.335.335,0,0,1,.057.193.327.327,0,0,1-.091.247.575.575,0,0,1-.27.133v.012a.672.672,0,0,1,.313.183.525.525,0,0,1,.126.374A.572.572,0,0,1,231.1,42a.944.944,0,0,1-.4.255,1.555,1.555,0,0,1-.532.089,1.623,1.623,0,0,1-.512-.081" fill="#fff"/>
    <path id="Path_111" data-name="Path 111" d="M238.014,41.623a3.442,3.442,0,0,0,.1-.806v-.523a1.061,1.061,0,0,0-.135-.594.411.411,0,0,0-.358-.2.391.391,0,0,0-.217.064.428.428,0,0,0-.156.185.7.7,0,0,0-.058.292V41.4h-.4V40.043a.694.694,0,0,0-.057-.294.424.424,0,0,0-.153-.185.389.389,0,0,0-.215-.062.408.408,0,0,0-.26.089.615.615,0,0,0-.175.266,1.346,1.346,0,0,0-.063.437v.523a3.305,3.305,0,0,0,.045.529,3.656,3.656,0,0,0,.123.524,1.839,1.839,0,0,0,.177.4h-.412a2.062,2.062,0,0,1-.243-.634,3.551,3.551,0,0,1-.093-.821v-.558a1.425,1.425,0,0,1,.11-.584.87.87,0,0,1,.306-.381.779.779,0,0,1,.447-.132.755.755,0,0,1,.411.111.572.572,0,0,1,.244.328h.013a.564.564,0,0,1,.151-.243.66.66,0,0,1,.24-.147.84.84,0,0,1,.73.08.84.84,0,0,1,.3.379,1.511,1.511,0,0,1,.107.589v.558a3.639,3.639,0,0,1-.092.819,1.929,1.929,0,0,1-.25.636h-.416a2.148,2.148,0,0,0,.256-.649" fill="#fff"/>
    <path id="Path_112" data-name="Path 112" d="M245.094,41.92a2.094,2.094,0,0,0-.709-.108h-1.258v-.305h.425v-.018a1.351,1.351,0,0,1-.4-.249,1.22,1.22,0,0,1-.3-.4,1.206,1.206,0,0,1-.115-.529,1.587,1.587,0,0,1,.106-.6.927.927,0,0,1,.3-.4.731.731,0,0,1,.441-.142.618.618,0,0,1,.591.43h.017a.588.588,0,0,1,.136-.23.643.643,0,0,1,.455-.2.664.664,0,0,1,.256.051.6.6,0,0,1,.214.149.555.555,0,0,1,.131.23h.017a.7.7,0,0,1,.233-.317.586.586,0,0,1,.361-.113.69.69,0,0,1,.437.147.934.934,0,0,1,.291.405,1.522,1.522,0,0,1,.1.575,2.182,2.182,0,0,1-.169.893h-.409a2.156,2.156,0,0,0,.178-.875,1.53,1.53,0,0,0-.053-.433.609.609,0,0,0-.153-.276.324.324,0,0,0-.233-.1.36.36,0,0,0-.21.065.4.4,0,0,0-.14.176.63.63,0,0,0-.049.257v.792h-.4V40a.628.628,0,0,0-.051-.264.41.41,0,0,0-.142-.172.371.371,0,0,0-.211-.062.361.361,0,0,0-.211.065.423.423,0,0,0-.142.178.618.618,0,0,0-.05.255v.792h-.4V40a.579.579,0,0,0-.1-.364.336.336,0,0,0-.279-.134.351.351,0,0,0-.24.094.6.6,0,0,0-.16.267,1.372,1.372,0,0,0-.054.41,1.069,1.069,0,0,0,.165.59,1.3,1.3,0,0,0,.413.413,1.16,1.16,0,0,0,.489.179l.083.008.117.009c.164.011.314.027.449.045a2.573,2.573,0,0,1,.385.082.9.9,0,0,1,.434.271.719.719,0,0,1,.166.4h-.4a.473.473,0,0,0-.342-.352" fill="#fff"/>
    <path id="Path_113" data-name="Path 113" d="M252.863,42.023a1,1,0,0,0-.362-.149,2.114,2.114,0,0,0-.466-.049h-.676v-.306h.416V41.5a1.207,1.207,0,0,1-.395-.246,1.262,1.262,0,0,1-.409-.957,1.363,1.363,0,0,1,.124-.6.977.977,0,0,1,.331-.4.817.817,0,0,1,.464-.14.775.775,0,0,1,.413.11.719.719,0,0,1,.276.341h.021a.8.8,0,0,1,.341-.337,1.023,1.023,0,0,1,.477-.114.974.974,0,0,1,.51.142,1.069,1.069,0,0,1,.375.389,1.163,1.163,0,0,1,0,1.1,1.021,1.021,0,0,1-.383.386,1.059,1.059,0,0,1-.54.141,1.024,1.024,0,0,1-.531-.138.967.967,0,0,1-.367-.383,1.141,1.141,0,0,1-.132-.555v-.268a.526.526,0,0,0-.057-.249.433.433,0,0,0-.156-.169.416.416,0,0,0-.217-.059.447.447,0,0,0-.283.1.622.622,0,0,0-.189.275,1.173,1.173,0,0,0-.068.425,1.092,1.092,0,0,0,.153.582,1.23,1.23,0,0,0,.4.407,1.75,1.75,0,0,0,.521.223,3.551,3.551,0,0,1,.5.166.919.919,0,0,1,.33.236.556.556,0,0,1,.129.359h-.4a.326.326,0,0,0-.151-.248m.856-1.138a.7.7,0,0,0,.241-.272.8.8,0,0,0,.087-.366.831.831,0,0,0-.085-.379.665.665,0,0,0-.238-.268.628.628,0,0,0-.344-.1.568.568,0,0,0-.33.1.656.656,0,0,0-.224.268.937.937,0,0,0,0,.753.642.642,0,0,0,.224.268.577.577,0,0,0,.332.1A.6.6,0,0,0,253.719,40.885Z" fill="#fff"/>
    <path id="Path_114" data-name="Path 114" d="M260.209,41.614a3.381,3.381,0,0,0,.1-.8v-.523a1.083,1.083,0,0,0-.071-.4.644.644,0,0,0-.21-.287.61.61,0,0,0-.69,0,.637.637,0,0,0-.21.287,1.084,1.084,0,0,0-.07.4v.523a3.432,3.432,0,0,0,.1.8,2.938,2.938,0,0,0,.232.657h-.413a2.575,2.575,0,0,1-.225-.642,3.569,3.569,0,0,1-.094-.812v-.561a1.229,1.229,0,0,1,.128-.569.937.937,0,0,1,.361-.387,1.047,1.047,0,0,1,.541-.138,1.035,1.035,0,0,1,.54.14.948.948,0,0,1,.361.389,1.22,1.22,0,0,1,.128.569v.557a3.466,3.466,0,0,1-.1.809,2.9,2.9,0,0,1-.224.645h-.412a2.845,2.845,0,0,0,.231-.657" fill="#fff"/>
    <path id="Path_115" data-name="Path 115" d="M265.534,42.227a.888.888,0,0,1-.372-.344,1.023,1.023,0,0,1-.139-.543V39.234h.4v2.072a.768.768,0,0,0,.083.374.577.577,0,0,0,.225.241.629.629,0,0,0,.321.083.69.69,0,0,0,.319-.072.556.556,0,0,0,.221-.2.524.524,0,0,0,.081-.286.7.7,0,0,0-.049-.274,1.008,1.008,0,0,0-.138-.227l-.115-.139a.826.826,0,0,1-.14-.24.888.888,0,0,1-.056-.3h.387a.531.531,0,0,0,.056.213,1.088,1.088,0,0,0,.1.164c.038.05.064.081.075.1.062.08.111.149.149.209a.861.861,0,0,1,.092.225,1.18,1.18,0,0,1,.039.323.727.727,0,0,1-.143.448.928.928,0,0,1-.379.3,1.234,1.234,0,0,1-.5.1,1.149,1.149,0,0,1-.523-.117" fill="#fff"/>
    <path id="Path_116" data-name="Path 116" d="M276.856,42.214a.968.968,0,0,1-.387-.372,1.1,1.1,0,0,1-.143-.569V39.94a.8.8,0,0,1,.2-.585.774.774,0,0,1,.868-.106.541.541,0,0,1,.231.266h.017a.407.407,0,0,1,.183-.251.606.606,0,0,1,.31-.076h.3v.339h-.255a.365.365,0,0,0-.258.083.292.292,0,0,0-.086.22v.114h-.4V39.83a.349.349,0,0,0-.041-.163.3.3,0,0,0-.116-.126.339.339,0,0,0-.179-.047.306.306,0,0,0-.266.13.6.6,0,0,0-.09.354V40.6h.008a.711.711,0,0,1,.313-.262,1.021,1.021,0,0,1,.447-.1.946.946,0,0,1,.486.131.969.969,0,0,1,.359.368,1.055,1.055,0,0,1,.134.535,1.08,1.08,0,0,1-.145.567.959.959,0,0,1-.389.374,1.126,1.126,0,0,1-.538.13,1.155,1.155,0,0,1-.551-.13m.893-.3a.634.634,0,0,0,.239-.248.77.77,0,0,0,.087-.373.814.814,0,0,0-.083-.374.6.6,0,0,0-.234-.251.681.681,0,0,0-.351-.089.7.7,0,0,0-.354.089.645.645,0,0,0-.246.251.758.758,0,0,0-.089.374.749.749,0,0,0,.089.373.636.636,0,0,0,.248.248.693.693,0,0,0,.352.09A.652.652,0,0,0,277.749,41.914Z" fill="#fff"/>
    <path id="Path_117" data-name="Path 117" d="M283.1,42.235a.839.839,0,0,1-.362-.314.908.908,0,0,1-.129-.488,1.062,1.062,0,0,1,.081-.42h.383a1.72,1.72,0,0,0-.045.187,1.084,1.084,0,0,0-.015.187.662.662,0,0,0,.077.325.52.52,0,0,0,.217.214.672.672,0,0,0,.331.078.66.66,0,0,0,.337-.083.54.54,0,0,0,.214-.23.729.729,0,0,0,.075-.338v-1.2a.788.788,0,0,0-.066-.326.539.539,0,0,0-.517-.326.606.606,0,0,0-.308.075.511.511,0,0,0-.2.2.517.517,0,0,0-.068.257.928.928,0,0,0,.025.225h-.391a.918.918,0,0,1-.023-.111.927.927,0,0,1-.011-.144.758.758,0,0,1,.121-.413.887.887,0,0,1,.343-.308,1.083,1.083,0,0,1,.514-.118,1.021,1.021,0,0,1,.526.131.871.871,0,0,1,.34.349,1,1,0,0,1,.117.486v1.226a1.029,1.029,0,0,1-.129.525.884.884,0,0,1-.364.345,1.161,1.161,0,0,1-.537.121,1.245,1.245,0,0,1-.538-.109" fill="#fff"/>
    <path id="Path_118" data-name="Path 118" d="M289.378,42.233a.862.862,0,0,1-.369-.31.806.806,0,0,1-.133-.459.992.992,0,0,1,.077-.409h.383a.962.962,0,0,0-.056.344.609.609,0,0,0,.086.332.528.528,0,0,0,.231.205.8.8,0,0,0,.339.067.743.743,0,0,0,.323-.069.559.559,0,0,0,.327-.53.629.629,0,0,0-.075-.312.511.511,0,0,0-.207-.215.6.6,0,0,0-.3-.077h-.226v-.331h.214a.552.552,0,0,0,.278-.065.4.4,0,0,0,.168-.17.507.507,0,0,0,.056-.238.463.463,0,0,0-.069-.245.5.5,0,0,0-.193-.181.6.6,0,0,0-.287-.068.642.642,0,0,0-.3.068.5.5,0,0,0-.2.181.462.462,0,0,0-.068.245.678.678,0,0,0,.021.183h-.386a.321.321,0,0,1-.026-.1.94.94,0,0,1-.009-.125.689.689,0,0,1,.125-.4.859.859,0,0,1,.35-.285,1.156,1.156,0,0,1,.5-.1,1.057,1.057,0,0,1,.484.109.86.86,0,0,1,.339.289.685.685,0,0,1,.121.39.734.734,0,0,1-.121.424.648.648,0,0,1-.317.251v.017a.805.805,0,0,1,.261.149.755.755,0,0,1,.2.267.883.883,0,0,1,.076.38.805.805,0,0,1-.135.451.968.968,0,0,1-.379.332,1.179,1.179,0,0,1-.54.123,1.307,1.307,0,0,1-.558-.111" fill="#fff"/>
    <path id="Path_119" data-name="Path 119" d="M297.54,41.783a1.928,1.928,0,0,0,.074-.544,1.108,1.108,0,0,0-.059-.392.487.487,0,0,0-.162-.232.389.389,0,0,0-.234-.075.344.344,0,0,0-.2.059.407.407,0,0,0-.137.168.627.627,0,0,0-.048.253v.691h-.4V41.02a.556.556,0,0,0-.1-.352.33.33,0,0,0-.269-.128.41.41,0,0,0-.229.069.47.47,0,0,0-.173.223,1.052,1.052,0,0,0-.066.4,1.953,1.953,0,0,0,.3,1.039h-.413a2.4,2.4,0,0,1-.165-.345,1.843,1.843,0,0,1-.094-.387,3.823,3.823,0,0,1-.03-.515,2,2,0,0,1,.145-.818,1.174,1.174,0,0,1,.406-.5,1.715,1.715,0,0,1,.641-.248l.434-.085a.659.659,0,0,0,.166-.054.174.174,0,0,0,.088-.087h.4a.462.462,0,0,1-.093.233.536.536,0,0,1-.21.15,1.648,1.648,0,0,1-.36.1l-.383.068a1.457,1.457,0,0,0-.6.245.812.812,0,0,0-.309.512h.008a.5.5,0,0,1,.139-.187.639.639,0,0,1,.2-.115.669.669,0,0,1,.216-.038.514.514,0,0,1,.325.1.674.674,0,0,1,.211.305h.013a.624.624,0,0,1,.243-.3.659.659,0,0,1,.365-.108.727.727,0,0,1,.423.13.877.877,0,0,1,.3.361,1.242,1.242,0,0,1,.108.53,2.166,2.166,0,0,1-.07.566,1.746,1.746,0,0,1-.219.485h-.418a1.809,1.809,0,0,0,.228-.489" fill="#fff"/>
    <path id="Path_120" data-name="Path 120" d="M303.794,41.614a3.379,3.379,0,0,0,.1-.8v-.523a1.084,1.084,0,0,0-.07-.4.637.637,0,0,0-.21-.287.553.553,0,0,0-.344-.107.559.559,0,0,0-.346.107.652.652,0,0,0-.21.287,1.083,1.083,0,0,0-.069.4v.523a3.429,3.429,0,0,0,.094.8,2.841,2.841,0,0,0,.232.657h-.412a2.532,2.532,0,0,1-.226-.642,3.567,3.567,0,0,1-.093-.812v-.561a1.242,1.242,0,0,1,.127-.569.944.944,0,0,1,.361-.387,1.053,1.053,0,0,1,.542-.138,1.033,1.033,0,0,1,.539.14.948.948,0,0,1,.361.389,1.22,1.22,0,0,1,.129.569v.557a3.415,3.415,0,0,1-.1.809,2.848,2.848,0,0,1-.224.645h-.411a2.99,2.99,0,0,0,.231-.657" fill="#fff"/>
    <path id="Path_121" data-name="Path 121" d="M301.674,36.236V27.355c0-1.66-.611-2.542-2.289-2.542-1.627,0-2.287.831-2.287,2.509v8.914h-2.713V27.254c0-2.9,1.695-4.746,5-4.746,3.186,0,5.017,1.729,5.017,4.8v8.931Zm-18.932-4.152V22.83h2.694v9.051a2.141,2.141,0,0,0,2.136,2.39,1.956,1.956,0,0,0,2.118-1.966c0-1.729-1.729-2.272-1.729-4.644l2.679-.255c.084,2.051,1.746,2.186,1.746,5.17,0,2.474-2.152,3.966-4.831,3.966C284.606,36.542,282.742,34.8,282.742,32.084Zm-4.712.119a2.06,2.06,0,0,0-2.187-2.136l-2.406-.017V32.2a2.166,2.166,0,0,0,2.339,2.033A2.108,2.108,0,0,0,278.03,32.2Zm-7.2-.254V26.541c0-2.338,1.457-3.711,4.3-3.711a19.613,19.613,0,0,0,4.475,0l.153,2.339a19.454,19.454,0,0,1-4.457,0c-1.238,0-1.781.475-1.781,1.508v1.085h2.729a4.174,4.174,0,0,1,4.491,4.357c0,2.423-2,4.423-4.948,4.423C272.811,36.542,270.827,34.694,270.827,31.949Zm-5.255,4.287V27.355c0-1.66-.61-2.542-2.287-2.542-1.627,0-2.289.831-2.289,2.509v8.914h-2.712V27.254c0-2.9,1.7-4.746,5-4.746,3.186,0,5.016,1.729,5.016,4.8v8.931Zm-12.813,0V26.813c0-1.237-.441-2-1.678-2-1.1,0-1.56.746-1.56,2V32.44h-2.593V26.813c0-1.271-.456-2-1.576-2-1.067,0-1.643.611-1.643,2v9.423h-2.7V26.661a3.937,3.937,0,0,1,4.136-4.153,3.081,3.081,0,0,1,3.034,1.746h.068a3.112,3.112,0,0,1,3.017-1.746c2.592,0,4.169,1.271,4.169,4.153v9.575Zm-16.813-4.813c0-1.119-.508-1.762-1.475-1.762-.864,0-1.39.66-1.39,1.746v2.457h-2.492V31.423c0-1.119-.49-1.762-1.422-1.762s-1.458.643-1.458,1.762v4.813h-2.678V30.017c0-3.882,1.949-6.34,6.9-7.017l3.593-.492v2.576l-4.186.56c-2.78.372-4.051,1.746-4.339,3.067h.033a2.981,2.981,0,0,1,2.408-1.254,2.568,2.568,0,0,1,2.372,1.61h.051a3.247,3.247,0,0,1,3-1.61,3.483,3.483,0,0,1,3.778,3.695v5.084h-2.694Zm-22.406.966V30.983h2.643v1.152a2.009,2.009,0,0,0,2.221,2.1,1.981,1.981,0,0,0,2.186-1.982,1.909,1.909,0,0,0-2-2.051h-.762V28.084h.712a1.565,1.565,0,0,0,1.746-1.627,1.682,1.682,0,0,0-1.849-1.644,1.711,1.711,0,0,0-1.881,1.695v.763h-2.61V26.2c0-2.017,1.849-3.695,4.509-3.695,2.525,0,4.441,1.576,4.441,3.695a2.937,2.937,0,0,1-1.764,2.965v.051a3.379,3.379,0,0,1,2.153,3.34c0,2.406-2.169,3.983-4.915,3.983C215.539,36.542,213.54,34.948,213.54,32.389Zm-11.424-.305V30.677h2.7v1.492a2.068,2.068,0,1,0,4.134-.067V26.881A1.834,1.834,0,0,0,207,24.813a1.8,1.8,0,0,0-1.9,2.05v.729H202.4v-.864c0-2.525,1.865-4.22,4.577-4.22,2.949,0,4.695,1.865,4.695,4.237V32.22c0,2.576-1.916,4.322-4.8,4.322C204.014,36.542,202.116,34.83,202.116,32.084Z" fill="#fff"/>
    <rect id="Rectangle_38" data-name="Rectangle 38" width="102.786" height="0.746" transform="translate(202.016 44.916)" fill="#ffc000"/>
    <path id="Path_122" data-name="Path 122" d="M302.834,48.247a2.489,2.489,0,0,0,.915,1.737,3.04,3.04,0,0,1,.917,2.3,3.085,3.085,0,0,1-.546,1.778,1.9,1.9,0,0,1-3.054,0,2.99,2.99,0,0,1-.554-1.814,2.874,2.874,0,0,1,.345-1.4l1,.338a4.447,4.447,0,0,0-.241,1.166,2.005,2.005,0,0,0,.262,1.194.847.847,0,0,0,.7.33.8.8,0,0,0,.8-.452,2.706,2.706,0,0,0,.209-1.127,2.543,2.543,0,0,0-.9-1.935,2.711,2.711,0,0,1-.893-2.114ZM298,54.738a12.751,12.751,0,0,0,.555-3.474,3.361,3.361,0,0,0-.287-1.579.789.789,0,0,0-.705-.5.816.816,0,0,0-.7.509,3.353,3.353,0,0,0-.289,1.571,11.925,11.925,0,0,0,.6,3.474h-1.212a16.9,16.9,0,0,1-.465-3.384,4.206,4.206,0,0,1,.542-2.249,1.8,1.8,0,0,1,3.052,0,4.174,4.174,0,0,1,.54,2.253,17.1,17.1,0,0,1-.457,3.384Zm-5.386-.846a.892.892,0,0,0,.672-.265,1.5,1.5,0,0,0,.255-1.025,1.414,1.414,0,0,0-.251-.91.834.834,0,0,0-.68-.309,1,1,0,0,0-.737.305,1.249,1.249,0,0,0-.305.914,1.311,1.311,0,0,0,.313,1.025A1.091,1.091,0,0,0,292.618,53.892Zm0,.941a2.015,2.015,0,0,1-1.54-.661,2.309,2.309,0,0,1-.589-1.586V49.695a1.281,1.281,0,0,1,.475-1.075,1.584,1.584,0,0,1,.971-.362h2.325v.922l-2.191,0c-.333,0-.5.144-.5.432v1.295a1.493,1.493,0,0,1,1.046-.457,2.047,2.047,0,0,1,1.436.525,2.1,2.1,0,0,1,.576,1.623,2.209,2.209,0,0,1-.582,1.645A1.992,1.992,0,0,1,292.622,54.833Zm-4.832-6.586a2.485,2.485,0,0,0,.915,1.737,3.27,3.27,0,0,1,.369,4.078,1.9,1.9,0,0,1-3.053,0,3,3,0,0,1-.554-1.814,2.875,2.875,0,0,1,.346-1.4l1,.338a4.448,4.448,0,0,0-.241,1.166,1.989,1.989,0,0,0,.263,1.194.844.844,0,0,0,.7.33.8.8,0,0,0,.8-.452,2.706,2.706,0,0,0,.209-1.127,2.546,2.546,0,0,0-.9-1.935,2.705,2.705,0,0,1-.894-2.114Zm-5.275.007c0,.192.326.335.978.433a1.08,1.08,0,0,1,.978,1.224,1.293,1.293,0,0,1-.627,1.166,1.936,1.936,0,0,1,.738,1.4,2.33,2.33,0,0,1-.59,1.764,2.168,2.168,0,0,1-2.949.009,2.2,2.2,0,0,1-.586-1.641,3.947,3.947,0,0,1,.132-.945l1.041.254a2.526,2.526,0,0,0-.1.691,1.408,1.408,0,0,0,.286.985.933.933,0,0,0,.7.3,1.152,1.152,0,0,0,.688-.26q.3-.244.3-1.142a1.214,1.214,0,0,0-.194-.738.743.743,0,0,0-.64-.254l-.428,0,.008-.949h.59c.367,0,.548-.212.548-.634q0-.433-1.047-.526a1.019,1.019,0,0,1-1.049-1.131Zm-5.023,5.621a.986.986,0,0,0,.753-.295,1.16,1.16,0,0,0,.281-.832,1.445,1.445,0,0,0-.3-1.027.974.974,0,0,0-.733-.31.892.892,0,0,0-.692.294,1.56,1.56,0,0,0-.268,1.047,1.205,1.205,0,0,0,.264.835A.9.9,0,0,0,277.492,53.875Zm2.093-1.142a2.052,2.052,0,0,1-2.093,2.088,1.914,1.914,0,0,1-1.464-.615,2.1,2.1,0,0,1-.572-1.477,2.413,2.413,0,0,1,.539-1.632,1.876,1.876,0,0,1,1.5-.623,1.638,1.638,0,0,1,1.008.345V49.9a.574.574,0,0,0-.226-.525,1.417,1.417,0,0,0-1.366-.029.771.771,0,0,0-.2.569h-1.064a1.451,1.451,0,0,1,.535-1.257,2.341,2.341,0,0,1,1.425-.406,2.157,2.157,0,0,1,1.4.467,1.43,1.43,0,0,1,.577,1.153Zm-8.761-2.617q0-.953-.655-.932a.783.783,0,0,0-.752.475,3.874,3.874,0,0,0-.221,1.64,5.765,5.765,0,0,0,1.333,3.442H269.12a6.694,6.694,0,0,1-1.016-3.327A3.84,3.84,0,0,1,268.709,49a1.8,1.8,0,0,1,1.428-.749,1.38,1.38,0,0,1,1.2.778,1.355,1.355,0,0,1,1.213-.778A1.759,1.759,0,0,1,274,49a3.9,3.9,0,0,1,.588,2.4,6.616,6.616,0,0,1-1.01,3.342H272.2a5.826,5.826,0,0,0,1.307-3.442,4,4,0,0,0-.238-1.64.791.791,0,0,0-.764-.475c-.451-.014-.679.3-.679.941l.005,2.1h-1.008Zm-4.676,2.66a2.11,2.11,0,0,0-.211-1.126.636.636,0,0,0-.543-.3h-.461v-.933h.334a.7.7,0,0,0,.49-.132.946.946,0,0,0,.133-.614c0-.295-.321-.766-.965-1.417h1.31a1.874,1.874,0,0,1,.731,1.4,1.608,1.608,0,0,1-.505,1.227,2.366,2.366,0,0,1,.77,1.869,1.986,1.986,0,0,1-.581,1.539,2.352,2.352,0,0,1-2.967.022A2.033,2.033,0,0,1,263.1,52.7a3.356,3.356,0,0,1,.239-1.259l.934.4a2.456,2.456,0,0,0-.1.81,1.337,1.337,0,0,0,.272.991,1.183,1.183,0,0,0,1.48-.069A1.316,1.316,0,0,0,266.148,52.776Zm-10.266-2.66q0-.953-.655-.932a.784.784,0,0,0-.752.475,3.858,3.858,0,0,0-.221,1.64,5.761,5.761,0,0,0,1.334,3.442h-1.41a6.694,6.694,0,0,1-1.016-3.327,3.84,3.84,0,0,1,.6-2.411,1.8,1.8,0,0,1,1.427-.749,1.382,1.382,0,0,1,1.2.778,1.354,1.354,0,0,1,1.214-.778,1.763,1.763,0,0,1,1.443.747,3.9,3.9,0,0,1,.586,2.4,6.614,6.614,0,0,1-1.009,3.342H257.26a5.831,5.831,0,0,0,1.306-3.442,4.018,4.018,0,0,0-.237-1.64.794.794,0,0,0-.764-.475q-.68-.021-.68.941l.005,2.1h-1.008Zm-3.692-.179a1.452,1.452,0,0,1-.647,1.252,1.792,1.792,0,0,1,.746,1.512,2.154,2.154,0,0,1-.542,1.546,2.015,2.015,0,0,1-1.542.574,2.086,2.086,0,0,1-1.512-.52,1.949,1.949,0,0,1-.541-1.473,3.005,3.005,0,0,1,.2-.964l1.075.253a1.866,1.866,0,0,0-.218.929.762.762,0,0,0,.271.588,1.06,1.06,0,0,0,.729.241,1.121,1.121,0,0,0,.726-.222.637.637,0,0,0,.274-.5v-.635a1.279,1.279,0,0,0-.134-.627.473.473,0,0,0-.448-.238h-.508v-.942h.508a.408.408,0,0,0,.363-.189,1.1,1.1,0,0,0,.124-.589.743.743,0,0,0-.216-.529.783.783,0,0,0-.6-.228.942.942,0,0,0-.717.207.6.6,0,0,0-.157.408,1.175,1.175,0,0,0,.107.461l-1.028.321a2.523,2.523,0,0,1-.154-.823,1.343,1.343,0,0,1,.559-1.047,2.13,2.13,0,0,1,1.4-.46,1.852,1.852,0,0,1,1.375.511A1.637,1.637,0,0,1,252.19,49.937Zm-4.911,2.736a2.029,2.029,0,0,1-.618,1.648,2.333,2.333,0,0,1-1.513.5,2.441,2.441,0,0,1-1.348-.438,1.723,1.723,0,0,1-.652-1.551,2.338,2.338,0,0,1,.317-1.084l.932.46a2.154,2.154,0,0,0-.174.826.761.761,0,0,0,.263.615.992.992,0,0,0,.659.222,1.121,1.121,0,0,0,.8-.243,1.357,1.357,0,0,0,.249-.959v-2.81a.6.6,0,0,0-.235-.493,1.1,1.1,0,0,0-.7-.186.9.9,0,0,0-.7.2.707.707,0,0,0-.172.469,1.041,1.041,0,0,0,.191.612l-.917.419a1.769,1.769,0,0,1-.333-1.012,1.451,1.451,0,0,1,.539-1.127,1.976,1.976,0,0,1,1.378-.493,2.123,2.123,0,0,1,1.5.483,1.529,1.529,0,0,1,.521,1.137Zm-5.1-2.736a1.455,1.455,0,0,1-.648,1.252,1.8,1.8,0,0,1,.746,1.512,2.15,2.15,0,0,1-.542,1.546,2.014,2.014,0,0,1-1.541.574,2.087,2.087,0,0,1-1.513-.52,1.949,1.949,0,0,1-.541-1.473,3,3,0,0,1,.2-.964l1.076.253a1.856,1.856,0,0,0-.218.929.762.762,0,0,0,.271.588,1.059,1.059,0,0,0,.73.241,1.114,1.114,0,0,0,.724-.222.636.636,0,0,0,.275-.5v-.635a1.28,1.28,0,0,0-.133-.627.476.476,0,0,0-.449-.238H240.1v-.942h.508a.408.408,0,0,0,.363-.189,1.1,1.1,0,0,0,.124-.589.743.743,0,0,0-.216-.529.784.784,0,0,0-.6-.228.938.938,0,0,0-.715.207.593.593,0,0,0-.158.408,1.143,1.143,0,0,0,.108.461l-1.03.321a2.55,2.55,0,0,1-.154-.823,1.344,1.344,0,0,1,.56-1.047,2.132,2.132,0,0,1,1.4-.46,1.848,1.848,0,0,1,1.374.511A1.631,1.631,0,0,1,242.176,49.937Zm-10.931,3.531.739-.112a4.274,4.274,0,0,1-1.195-2.672,2.541,2.541,0,0,1,.585-1.831,1.937,1.937,0,0,1,1.447-.6,1.561,1.561,0,0,1,1.2.575,1.51,1.51,0,0,1,1.211-.575,1.916,1.916,0,0,1,1.458.6,2.306,2.306,0,0,1,.571,1.644,3.688,3.688,0,0,1-.482,1.958h-1.209a3.262,3.262,0,0,0,.619-1.962,1.5,1.5,0,0,0-.285-.986.884.884,0,0,0-.708-.339.645.645,0,0,0-.694.743V51.53h-1V49.911q.009-.728-.654-.727a.92.92,0,0,0-.685.325,1.714,1.714,0,0,0-.305,1.163,3.732,3.732,0,0,0,1.34,2.537,5.356,5.356,0,0,1,1.888.4,2.1,2.1,0,0,1,1.223,1.2h-1.382a1.048,1.048,0,0,0-.721-.579,5.2,5.2,0,0,0-1.117-.108,6.823,6.823,0,0,0-1.85.317ZM227.788,50a1.26,1.26,0,0,0-.121-.577.522.522,0,0,0-.515-.236.729.729,0,0,0-.509.143,1.4,1.4,0,0,0,.085,1.409,1.368,1.368,0,0,1,.969-.269A.977.977,0,0,0,227.788,50Zm.06,3.895a.988.988,0,0,0,.721-.309,1.47,1.47,0,0,0,.268-.993,1.287,1.287,0,0,0-.282-.9.98.98,0,0,0-1.42,0,1.293,1.293,0,0,0-.279.9,1.376,1.376,0,0,0,.29,1A1.028,1.028,0,0,0,227.848,53.892Zm0,.941a2.107,2.107,0,0,1-1.459-.586,2.178,2.178,0,0,1-.612-1.672,2.261,2.261,0,0,1,.349-1.121,2.264,2.264,0,0,1-.482-.62,1.79,1.79,0,0,1-.186-.857,1.811,1.811,0,0,1,.431-1.262,1.581,1.581,0,0,1,1.233-.468,1.478,1.478,0,0,1,1.285.55,1.862,1.862,0,0,1,.39,1.089,2.359,2.359,0,0,1-.1.652,1.97,1.97,0,0,1,1.21,2.037,2.157,2.157,0,0,1-.637,1.672A2.126,2.126,0,0,1,227.851,54.833Zm-5.093-6.586a2.485,2.485,0,0,0,.915,1.737,3.27,3.27,0,0,1,.369,4.078,1.9,1.9,0,0,1-3.053,0,3,3,0,0,1-.553-1.814,2.874,2.874,0,0,1,.345-1.4l1,.338a4.447,4.447,0,0,0-.241,1.166,2,2,0,0,0,.263,1.194.846.846,0,0,0,.7.33.8.8,0,0,0,.8-.452,2.707,2.707,0,0,0,.208-1.127,2.542,2.542,0,0,0-.9-1.935,2.707,2.707,0,0,1-.892-2.114Zm-5.269,3.585a.924.924,0,0,0,.677-.326,1.86,1.86,0,0,0,.034-2,.9.9,0,0,0-.711-.329.937.937,0,0,0-.676.335,1.382,1.382,0,0,0-.312.978,1.422,1.422,0,0,0,.312,1.019A.936.936,0,0,0,217.489,51.832Zm-3.952,1.559.606-.071a3.823,3.823,0,0,1-1.1-2.675,2.736,2.736,0,0,1,.517-1.747,1.855,1.855,0,0,1,1.557-.647,1.821,1.821,0,0,1,1.2.421,1.872,1.872,0,0,1,1.179-.421,2.056,2.056,0,0,1,1.473.567,2.2,2.2,0,0,1,.6,1.675,2.255,2.255,0,0,1-.614,1.656,2.011,2.011,0,0,1-2.9.008,2.209,2.209,0,0,1-.627-1.66,2.523,2.523,0,0,1,.337-1.179,1.887,1.887,0,0,0-.644-.134.911.911,0,0,0-.714.327,1.739,1.739,0,0,0-.286,1.134,3.523,3.523,0,0,0,.282,1.385,3.393,3.393,0,0,0,1,1.222,5.861,5.861,0,0,1,2.052.464,1.485,1.485,0,0,1,.82,1.1h-1.454a.49.49,0,0,0-.3-.443,3.4,3.4,0,0,0-1.319-.161,8.86,8.86,0,0,0-1.658.131Zm-3.2-5.144a2.485,2.485,0,0,0,.915,1.737,3.04,3.04,0,0,1,.917,2.3,3.079,3.079,0,0,1-.547,1.778,1.9,1.9,0,0,1-3.053,0,3,3,0,0,1-.554-1.814,2.874,2.874,0,0,1,.345-1.4l1,.338a4.447,4.447,0,0,0-.241,1.166,2,2,0,0,0,.263,1.194.847.847,0,0,0,.7.33.8.8,0,0,0,.8-.452,2.691,2.691,0,0,0,.209-1.127,2.551,2.551,0,0,0-.9-1.935,2.705,2.705,0,0,1-.894-2.114ZM206.3,49.68a2.252,2.252,0,0,0,.416,1.507,2.233,2.233,0,0,1,.421,1.49,2.1,2.1,0,0,1-.613,1.522A2.051,2.051,0,0,1,203,52.6V48.254h1.076v4.339a1.457,1.457,0,0,0,.286.96.8.8,0,0,0,.687.322.955.955,0,0,0,.717-.3,1.3,1.3,0,0,0,.291-.906,1.855,1.855,0,0,0-.41-1.264,2.7,2.7,0,0,1-.416-1.729Z" fill="#fff"/>
    <path id="Path_123" data-name="Path 123" d="M190.75,33.26H177.755V25.788q.408-.031.819-.032a13.676,13.676,0,0,1,12.176,7.5" fill="#fff"/>
    <path id="Path_124" data-name="Path 124" d="M191.723,43.06l-13.97-.01.011-.012L177.753,35h13.73a13.413,13.413,0,0,1,.731,4.408,13.985,13.985,0,0,1-.491,3.652" fill="#fff"/>
    <path id="Path_125" data-name="Path 125" d="M177.753,53.026V44.812l.033.011H191.1a13.685,13.685,0,0,1-12.526,8.225c-.274,0-.546-.011-.821-.022" fill="#fff"/>
    <path id="Path_126" data-name="Path 126" d="M164.922,39.409A13.682,13.682,0,0,0,176.189,52.84V25.974a13.675,13.675,0,0,0-11.267,13.435m1.84,1.07h0l-.045.034.349-1.084-.918-.677h.091l-.045-.034h1.1l.339-1.05.016.052.027-.085.352,1.083h1.138l-.92.678.35,1.083-.074-.054.028.088-.917-.668-.7.509Zm3.271,5.557-.075-.054.029.086-.952-.687-.9.655v0l-.047.034.352-1.114-.941-.7h.09l-.043-.032h1.133l.351-1.083.019.055.028-.088.359,1.116h1.172l-.941.7Zm.753-13.049-.814.59-.093.066.361,1.115-.073-.054.028.087-.941-.688-.457.335-.439.32h0l-.044.034.361-1.115-.942-.689h.093l-.046-.034H168.9l.34-1.18.018.061.028-.094.372,1.213h1.17l-.046.034Zm3.525,16.955-.073-.054.026.086-.93-.688-.159.117-.736.539v0l-.046.034.361-1.117-.942-.676h.092l-.046-.032h1.126l.349-1.084.017.055.029-.089.361,1.118h1.149l-.931.676Zm-.329-20.271.349,1.073-.075-.055.03.089-.919-.669-.919.669L172.8,29.7l-.919-.678h.091l-.045-.033h1.1l.338-1.049.018.055.028-.087.349,1.081H174.9Z" fill="#fff"/>
  </g>
</svg>
