<svg xmlns="http://www.w3.org/2000/svg" width="111.701" height="104.902" viewBox="0 0 111.701 104.902">
  <path id="Path_1315" data-name="Path 1315" d="M3154.424,527.217l-8.864-4.022-2.537-4.1a34.077,34.077,0,0,0,15.884-28.822V473.442a2.617,2.617,0,0,0-1.409-2.255l-22.775-12.118a2.492,2.492,0,0,0-2.434.026l-22.058,12.092a2.481,2.481,0,0,0-1.281,2.255v17.165a34.218,34.218,0,0,0,2.971,14.168H3093.45a12.89,12.89,0,0,0-10.171,5.021L3073.21,522.99,3056.3,527.6a10.254,10.254,0,0,0-7.557,9.863v6.456a10.382,10.382,0,0,0,10.3,10.3h1.229a12.9,12.9,0,0,0,24.851,0h37.661a12.9,12.9,0,0,0,24.851,0h2.511a10.349,10.349,0,0,0,10.3-10.3v-7.4A10.3,10.3,0,0,0,3154.424,527.217Zm-40.351-52.264,19.548-10.734,20.163,10.76v15.295a29.1,29.1,0,0,1-17.832,26.772h-.051l-2.459,1.051-2-.9a29.051,29.051,0,0,1-17.37-26.619ZM3072.7,558.447a7.763,7.763,0,1,1,7.763-7.762A7.758,7.758,0,0,1,3072.7,558.447Zm62.512,0a7.763,7.763,0,1,1,7.762-7.762A7.757,7.757,0,0,1,3135.21,558.447Zm20.136-14.551h-.025a5.229,5.229,0,0,1-5.175,5.175h-2.152a12.892,12.892,0,0,0-25.569,0h-36.943a12.892,12.892,0,0,0-25.568,0h-.871a5.227,5.227,0,0,1-5.175-5.175v-6.457a5.15,5.15,0,0,1,3.791-4.919l17.729-4.842a2.652,2.652,0,0,0,1.383-.922l10.607-13.886a7.693,7.693,0,0,1,6.1-3h21.367a34.7,34.7,0,0,0,14.552,12.041l3.074,1.332a2.589,2.589,0,0,0,2.05,0l3.458-1.486c.18-.077.359-.154.513-.23l3.151,5.047a2.4,2.4,0,0,0,1.1.973l9.581,4.33a5.161,5.161,0,0,1,3.023,4.637Z" transform="translate(-3048.744 -458.765)" fill="#ffc000"/>
  <path id="Path_1316" data-name="Path 1316" d="M3128.42,499.343c.026.026.052.077.1.1l.1.1c.026.026.077.051.1.077a.547.547,0,0,0,.128.077.344.344,0,0,1,.1.077c.052.025.077.051.128.077a.2.2,0,0,0,.1.051.356.356,0,0,0,.154.051c.025.026.077.026.1.051.051.026.1.026.154.051.025,0,.077.026.1.026.051,0,.1.026.154.026.026,0,.077.025.1.025h.564c.051,0,.128-.025.18-.025a.092.092,0,0,0,.076-.026c.051,0,.1-.026.154-.026.026,0,.051-.025.077-.025.051,0,.077-.026.128-.051.026,0,.051-.026.1-.026.026-.025.077-.025.1-.051s.077-.026.1-.051.077-.026.1-.052a.2.2,0,0,1,.1-.051c.026,0,.052-.051.1-.051a.344.344,0,0,1,.1-.077c.026-.026.052-.026.077-.051l13.912-11.324a2.571,2.571,0,1,0-3.2-4.022l-.025.025-11.99,9.761-4.356-5.1a2.563,2.563,0,1,0-3.919,3.305l.025.026,5.969,6.994A.363.363,0,0,0,3128.42,499.343Z" transform="translate(-3048.744 -458.765)" fill="#ffc000"/>
</svg>
