<svg xmlns="http://www.w3.org/2000/svg" width="110.953" height="104.962" viewBox="0 0 110.953 104.962">
  <path id="Path_1374" data-name="Path 1374" d="M2590.348,476.254l-22.776-12.118a2.493,2.493,0,0,0-2.434.026l-22.058,12.092a2.479,2.479,0,0,0-1.281,2.255v11.372a29.737,29.737,0,0,0-15.879,6.865c-6.109-5.38-11.635-8-16.839-8a26,26,0,0,0-18.941,8.014,27.339,27.339,0,0,0-7.345,14.071,3.052,3.052,0,0,0,5.986,1.2,21.292,21.292,0,0,1,5.721-11,19.984,19.984,0,0,1,14.579-6.179c4.047,0,8.95,2.727,14.52,8.052a3.253,3.253,0,0,0,2.311.975h0a3.252,3.252,0,0,0,2.31-.97,23.946,23.946,0,0,1,13.576-6.874,34.194,34.194,0,0,0,2.969,13.812l2.921,5.1a34.64,34.64,0,0,0,5.519,6.239h-13.819a3.047,3.047,0,0,0-2.217.955l-9.253,9.785-10.658-24.176a3.05,3.05,0,0,0-5.393-.364l-8.465,13.8h-19.551a3.052,3.052,0,0,0,0,6.1h21.258a3.051,3.051,0,0,0,2.6-1.457l6.315-10.294,10.162,23.051a3.053,3.053,0,0,0,5.01.867l11.506-12.168h19.621a20.319,20.319,0,0,1-2.915,3.819l-31.447,30.4-24.936-24.093a3.051,3.051,0,1,0-4.24,4.388l27.056,26.141a3.049,3.049,0,0,0,4.24,0l33.628-32.508a26.986,26.986,0,0,0,4.877-6.918,2.67,2.67,0,0,0,.776-.2l3.459-1.486,5.047-2.664a34.081,34.081,0,0,0,15.884-28.822V478.509A2.617,2.617,0,0,0,2590.348,476.254Zm-27.409,51.028.127.055-.354-.055Zm23.694-31.941a29.094,29.094,0,0,1-17.831,26.772h-.051l-2.46,1.05-2-.9a29.052,29.052,0,0,1-17.37-26.619V480.02l19.548-10.734,20.162,10.76Z" transform="translate(-2480.804 -463.832)" fill="#ffc000"/>
  <path id="Path_1375" data-name="Path 1375" d="M2559.118,493.983a2.564,2.564,0,1,0-3.92,3.3l.026.025,5.969,6.994a.348.348,0,0,0,.077.1c.025.026.051.077.1.1l.1.1c.026.026.077.051.1.077a.617.617,0,0,0,.128.077.353.353,0,0,1,.1.076c.051.026.077.052.128.077a.2.2,0,0,0,.1.052.379.379,0,0,0,.154.051c.026.026.077.026.1.051.051.026.1.026.153.051.026,0,.077.026.1.026.051,0,.1.026.154.026.025,0,.077.025.1.025h.564c.051,0,.128-.025.179-.025a.093.093,0,0,0,.077-.026c.051,0,.1-.026.154-.026.025,0,.051-.025.077-.025.051,0,.076-.026.128-.051.025,0,.051-.026.1-.026.026-.026.077-.026.1-.051s.077-.026.1-.052.077-.025.1-.051a.192.192,0,0,1,.1-.051c.026,0,.051-.051.1-.051a.348.348,0,0,1,.1-.077c.026-.026.051-.026.077-.051l13.911-11.324a2.571,2.571,0,1,0-3.2-4.023l-.026.026-11.99,9.761Z" transform="translate(-2480.804 -463.832)" fill="#ffc000"/>
</svg>
