<svg xmlns="http://www.w3.org/2000/svg" width="100.634" height="104.902" viewBox="0 0 100.634 104.902">
  <path id="Path_1332" data-name="Path 1332" d="M2889.057,476.254l-22.776-12.118a2.493,2.493,0,0,0-2.434.026l-22.058,12.092a2.479,2.479,0,0,0-1.281,2.255v16.563l-7.929-6.88a2.759,2.759,0,0,0-3.614.005l-38.181,33.072a2.663,2.663,0,0,0-.778,2.987,2.7,2.7,0,0,0,2.585,1.732h5.726v39.293c.028,1.542,1.263,3.408,2.805,3.453h58.423a3.01,3.01,0,0,0,2.891-2.912v-38.2l1.59.689a2.59,2.59,0,0,0,2.05,0l3.458-1.486,5.048-2.664a34.081,34.081,0,0,0,15.884-28.822V478.509A2.621,2.621,0,0,0,2889.057,476.254Zm-89.071,44.218,30.782-26.657,10.465,9.086a33.882,33.882,0,0,0,2.246,6.94l2.921,5.1a34.618,34.618,0,0,0,4.749,5.532Zm37.629,42.567h-13.444V547.016h13.444Zm19.3,0h-13.789V544.261a2.66,2.66,0,0,0-2.637-2.761h-19.235a2.632,2.632,0,0,0-2.6,2.761v18.778h-14.823V525.988h53.086Zm28.422-67.7a29.1,29.1,0,0,1-17.831,26.772h-.052l-2.459,1.05-2-.9a29.05,29.05,0,0,1-17.37-26.619V480.02l19.547-10.734,20.163,10.76Z" transform="translate(-2789.832 -463.832)" fill="#ffc000"/>
  <path id="Path_1333" data-name="Path 1333" d="M2857.826,493.983a2.563,2.563,0,1,0-3.919,3.3l.025.025,5.97,6.994a.347.347,0,0,0,.076.1c.026.026.052.077.1.1l.1.1c.026.026.077.051.1.077a.617.617,0,0,0,.128.077.347.347,0,0,1,.1.076c.052.026.077.052.129.077a.188.188,0,0,0,.1.052.369.369,0,0,0,.154.051c.025.026.077.026.1.051.051.026.1.026.154.051.026,0,.077.026.1.026.052,0,.1.026.154.026.026,0,.077.025.1.025h.563c.051,0,.128-.025.18-.025a.091.091,0,0,0,.076-.026c.052,0,.1-.026.154-.026.026,0,.051-.025.077-.025.051,0,.077-.026.128-.051.026,0,.051-.026.1-.026.025-.026.076-.026.1-.051s.077-.026.1-.052.076-.025.1-.051a.192.192,0,0,1,.1-.051c.026,0,.052-.051.1-.051a.342.342,0,0,1,.1-.077c.026-.026.052-.026.077-.051l13.912-11.324a2.571,2.571,0,1,0-3.2-4.023l-.025.026-11.99,9.761Z" transform="translate(-2789.832 -463.832)" fill="#ffc000"/>
</svg>
