<svg xmlns="http://www.w3.org/2000/svg" width="109.063" height="104.924" viewBox="0 0 109.063 104.924">
  <path id="Path_1352" data-name="Path 1352" d="M3481.022,471.187l-22.776-12.118a2.493,2.493,0,0,0-2.434.026l-22.058,12.092a2.481,2.481,0,0,0-1.281,2.255v17.165a34.451,34.451,0,0,0,1.174,9.106h-2.711v-4.2a8.3,8.3,0,0,0-8.391-8.391h-16.78a8.3,8.3,0,0,0-8.39,8.391v4.2h-17.714a6.226,6.226,0,0,0-6.293,6.293V557.4a6.227,6.227,0,0,0,6.293,6.293h74.463a6.227,6.227,0,0,0,6.293-6.293V522.225l1.083-.465,5.047-2.664a34.08,34.08,0,0,0,15.884-28.822V473.442A2.617,2.617,0,0,0,3481.022,471.187Zm-77.355,24.331a2.052,2.052,0,0,1,2.1-2.1h16.78a2.052,2.052,0,0,1,2.1,2.1v4.2h-20.976ZM3402,517.482l10.453,10.455-6.059,6.119-10.443-10.526Zm-22.34,39.914-.048-51.386a.2.2,0,0,1,.048,0h19.3v5.619l-9.671,9.671a3.146,3.146,0,0,0-.009,4.44L3401.14,537.7l3.04,3.041a3.145,3.145,0,0,0,2.226.922h.006a3.148,3.148,0,0,0,2.228-.933l10.488-10.593a3.143,3.143,0,0,0-.011-4.437l-13.865-13.866v-5.83h30.9l2.216,3.867a34.7,34.7,0,0,0,14.551,12.041l1.207.523V557.4Zm97.646-67.122a29.092,29.092,0,0,1-17.831,26.772h-.051l-2.46,1.051-2-.9a29.051,29.051,0,0,1-17.37-26.619V474.953l19.548-10.734,20.162,10.76Z" transform="translate(-3373.368 -458.765)" fill="#ffc000"/>
  <path id="Path_1353" data-name="Path 1353" d="M3449.792,488.916a2.564,2.564,0,0,0-3.92,3.305l.026.026,5.969,6.994a.345.345,0,0,0,.077.1.38.38,0,0,0,.1.1l.1.1c.026.026.077.051.1.077a.575.575,0,0,0,.128.077.35.35,0,0,1,.1.077c.051.025.077.051.128.077a.2.2,0,0,0,.1.051.364.364,0,0,0,.154.051c.026.026.077.026.1.051.051.026.1.026.153.051.026,0,.077.026.1.026.051,0,.1.026.154.026.025,0,.076.025.1.025h.564c.051,0,.128-.025.179-.025a.094.094,0,0,0,.077-.026c.051,0,.1-.026.154-.026.025,0,.051-.025.076-.025.052,0,.077-.026.129-.051.025,0,.051-.026.1-.026.026-.025.077-.025.1-.051s.077-.026.1-.051.077-.026.1-.052a.2.2,0,0,1,.1-.051c.026,0,.051-.051.1-.051a.368.368,0,0,1,.1-.077c.025-.026.051-.026.077-.051l13.911-11.324a2.57,2.57,0,0,0-3.2-4.022l-.026.025-11.99,9.761Z" transform="translate(-3373.368 -458.765)" fill="#ffc000"/>
</svg>
